<?xml version="1.0" standalone="no"?>
<!DOCTYPE svg PUBLIC "-//W3C//DTD SVG 20010904//EN"
 "http://www.w3.org/TR/2001/REC-SVG-20010904/DTD/svg10.dtd">
<svg version="1.0" xmlns="http://www.w3.org/2000/svg"
 width="2112.000000pt" height="2016.000000pt" viewBox="0 0 2112.000000 2016.000000"
 preserveAspectRatio="xMidYMid meet">
<metadata>
Created by potrace 1.16, written by Peter Selinger 2001-2019
</metadata>
<g transform="translate(0.000000,2016.000000) scale(0.100000,-0.100000)"
fill="#005ea2" stroke="none">
<path d="M10364 19113 c-4 -10 -12 -31 -19 -48 -7 -16 -95 -275 -195 -575
l-183 -545 -619 2 c-341 2 -627 -1 -634 -5 -15 -8 104 -107 256 -212 36 -25
207 -152 380 -281 173 -130 325 -242 338 -250 13 -8 22 -24 22 -38 0 -27 -35
-145 -125 -421 -35 -107 -97 -298 -138 -425 -85 -260 -112 -353 -105 -360 3
-3 81 50 174 117 93 67 208 149 256 182 47 34 146 104 218 156 73 52 173 124
224 160 51 36 105 75 120 88 16 12 35 22 43 22 13 0 298 -199 508 -355 61 -45
177 -128 259 -185 83 -56 179 -125 214 -152 35 -27 65 -48 66 -46 2 1 -28 98
-65 213 -38 116 -109 338 -160 495 -50 157 -109 339 -131 405 -38 111 -40 120
-23 130 16 9 250 179 478 348 51 37 160 116 242 176 208 152 290 216 290 227
0 5 -255 10 -630 12 -550 2 -631 5 -638 18 -11 19 -174 493 -380 1102 -22 63
-33 75 -43 45z"/>
<path d="M8000 17259 c-415 -148 -882 -372 -1285 -617 -337 -206 -577 -378
-955 -690 -397 -328 -933 -931 -1249 -1405 -194 -291 -437 -725 -545 -972
-179 -410 -294 -715 -364 -970 -128 -463 -186 -728 -242 -1120 -69 -485 -79
-1138 -24 -1625 44 -393 79 -588 175 -975 81 -324 150 -541 273 -853 206 -524
418 -910 811 -1477 126 -182 361 -470 535 -653 74 -78 136 -146 138 -151 5
-14 373 -364 378 -359 2 3 4 290 4 638 0 719 10 636 -95 758 -108 125 -181
225 -323 438 -404 608 -680 1222 -840 1874 -120 486 -161 755 -177 1170 -3 80
-8 181 -11 225 -11 174 33 736 82 1045 74 467 208 948 388 1387 126 308 300
651 472 928 47 77 98 160 113 184 157 261 507 686 818 992 193 190 538 481
661 557 20 12 64 42 97 66 66 49 369 246 378 246 3 0 35 18 71 40 36 22 69 40
73 40 3 0 14 7 23 15 19 17 399 207 542 270 57 25 117 52 133 60 103 49 286
115 318 115 16 0 17 5 12 33 -4 17 -13 43 -20 57 -7 14 -65 185 -130 380 -65
195 -123 361 -128 368 -12 15 -7 16 -107 -19z"/>
<path d="M12647 17257 c-8 -17 -36 -97 -62 -177 -26 -80 -73 -219 -105 -310
-91 -263 -107 -320 -90 -320 55 0 905 -382 918 -412 2 -5 7 -8 12 -8 16 0 331
-186 451 -267 477 -319 904 -692 1257 -1097 262 -300 616 -818 780 -1141 112
-220 272 -564 272 -584 0 -7 7 -26 16 -44 41 -78 197 -556 268 -817 117 -437
205 -1171 192 -1615 -6 -211 -34 -560 -61 -754 -34 -239 -121 -636 -182 -826
-191 -599 -377 -1011 -671 -1485 -127 -205 -333 -496 -436 -615 -29 -33 -62
-73 -74 -89 l-22 -29 0 -639 0 -640 127 118 c215 201 437 434 572 599 45 55
117 143 160 195 192 234 451 624 640 960 89 159 271 543 354 750 129 318 198
526 276 830 108 426 164 768 196 1217 31 429 14 1010 -41 1398 -64 458 -74
512 -159 855 -144 578 -407 1250 -672 1720 -116 206 -232 399 -276 460 -9 14
-46 68 -80 120 -75 113 -160 228 -242 328 -33 41 -73 90 -90 111 -145 179
-268 313 -495 541 -338 339 -568 538 -879 758 -70 49 -257 173 -336 222 -38
23 -92 57 -120 75 -127 80 -284 168 -464 259 -139 70 -417 201 -469 220 -20 8
-71 28 -112 46 -82 35 -269 103 -311 113 -23 6 -29 2 -42 -26z"/>
<path d="M10258 15302 c-163 -140 -483 -474 -630 -659 -344 -432 -533 -726
-777 -1208 -104 -207 -106 -212 -158 -335 -24 -58 -50 -119 -58 -136 -19 -41
-80 -199 -115 -299 -80 -226 -101 -290 -133 -400 -96 -328 -193 -740 -241
-1030 -38 -226 -54 -366 -82 -684 -17 -190 -17 -195 2 -209 26 -19 236 -152
383 -242 67 -41 190 -117 274 -169 151 -93 319 -197 702 -431 110 -67 261
-162 335 -210 74 -48 146 -93 160 -100 30 -15 331 -201 595 -367 105 -66 222
-138 260 -161 102 -61 612 -376 907 -561 117 -73 138 -90 138 -111 0 -113
-100 -1053 -135 -1275 -33 -205 -65 -417 -80 -525 -26 -192 -74 -471 -94 -545
l-19 -70 -1108 0 -1108 0 -12 41 c-6 22 -24 108 -38 190 -15 82 -45 244 -66
359 -64 341 -109 658 -170 1210 -11 99 -27 241 -35 315 -23 201 -45 546 -59
893 -11 283 -13 309 -31 326 -11 10 -128 85 -260 166 -132 82 -292 181 -355
220 -146 90 -206 125 -217 125 -4 0 -7 -202 -5 -448 l2 -449 -341 -324 c-188
-178 -361 -342 -384 -364 -23 -22 -96 -89 -161 -150 -222 -205 -426 -410 -481
-483 -110 -147 -171 -287 -203 -464 -20 -111 -21 -142 -20 -1807 0 -932 2
-1696 5 -1699 4 -4 167 84 345 186 81 46 228 129 430 243 85 48 202 115 260
148 58 34 211 121 340 194 129 74 437 249 684 391 248 142 465 264 484 272 29
12 238 14 1403 14 l1368 0 73 -39 c40 -21 120 -65 178 -98 58 -33 204 -115
325 -183 121 -68 231 -131 245 -140 35 -24 190 -114 415 -240 244 -137 964
-550 1165 -669 134 -79 156 -89 161 -74 4 10 6 779 5 1708 l-2 1690 -22 103
c-33 151 -75 262 -152 397 -33 59 -218 258 -365 395 -38 35 -131 123 -205 195
-119 115 -272 259 -449 421 -29 27 -117 108 -195 180 -151 140 -207 180 -566
404 -128 80 -260 163 -294 184 -61 39 -461 284 -586 358 -36 21 -130 80 -210
130 -225 141 -342 213 -510 315 -85 51 -177 108 -205 125 -110 70 -332 208
-370 231 -77 46 -230 141 -295 182 -36 23 -118 75 -184 116 -65 41 -159 100
-210 132 -50 32 -113 71 -141 88 -27 17 -93 57 -145 90 -52 32 -115 70 -140
83 -81 43 -86 53 -71 149 61 384 80 478 176 857 111 441 249 813 461 1245 175
358 411 731 651 1033 41 50 77 92 81 92 4 0 29 -28 57 -61 27 -34 54 -67 60
-73 44 -46 304 -426 410 -601 49 -81 303 -578 342 -670 168 -397 308 -828 382
-1180 22 -104 45 -210 50 -235 47 -202 118 -680 142 -950 10 -124 22 -259 26
-300 4 -51 11 -79 22 -87 9 -7 116 -74 239 -150 122 -76 311 -193 419 -260
108 -68 203 -123 210 -123 10 0 12 17 8 73 -2 39 -7 169 -10 287 -6 248 -30
680 -45 825 -14 130 -77 574 -96 679 -8 44 -21 122 -29 171 -23 146 -97 449
-180 735 -124 428 -294 868 -470 1220 -127 253 -392 690 -541 890 -22 30 -63
87 -92 125 -125 171 -354 429 -581 656 -194 193 -292 279 -321 279 -10 0 -65
-40 -122 -88z m-2158 -8055 c8 -79 15 -136 61 -472 49 -359 114 -753 174
-1054 36 -179 65 -335 65 -348 0 -16 -10 -29 -27 -39 -16 -8 -221 -126 -458
-261 -514 -293 -575 -327 -581 -321 -7 8 -6 1752 2 1794 9 55 59 145 113 207
25 28 116 120 201 202 137 132 201 194 379 363 54 52 59 47 71 -71z m4590 104
c0 -6 30 -35 68 -67 123 -104 537 -511 581 -572 24 -33 55 -86 69 -118 l24
-59 5 -892 c3 -491 2 -893 -1 -893 -12 0 -126 60 -182 96 -31 20 -116 69 -188
108 -72 40 -223 126 -336 191 -113 65 -230 132 -260 150 -108 62 -102 56 -97
100 3 22 28 168 57 325 28 157 64 362 80 455 38 220 127 911 135 1040 8 125
12 145 30 145 8 0 15 -4 15 -9z"/>
<path d="M9471 4118 c-5 -13 -16 -57 -25 -98 -82 -387 3 -960 230 -1537 117
-300 235 -523 437 -823 38 -56 221 -299 264 -350 9 -10 210 241 281 350 90
139 256 420 291 494 102 214 121 258 192 466 103 298 157 532 190 822 18 163
7 466 -23 593 l-23 100 -903 3 -902 2 -9 -22z"/>
</g>
</svg>
